<svg id="Layer_1" data-name="Layer 1" xmlns="http://www.w3.org/2000/svg" xmlns:xlink="http://www.w3.org/1999/xlink" viewBox="0 0 569.59 155.48"><defs><style>.cls-1{fill:url(#linear-gradient);}.cls-2{fill:url(#linear-gradient-2);}.cls-3{fill:url(#linear-gradient-3);}.cls-4{fill:url(#linear-gradient-4);}.cls-5{fill:url(#linear-gradient-5);}.cls-6{fill:url(#linear-gradient-6);}.cls-7{font-size:40.6px;font-family:Arial-BoldMT, Arial;font-weight:700;letter-spacing:-0.02em;}.cls-7,.cls-9{fill:#fff;}.cls-8{letter-spacing:0em;}.cls-9{stroke-miterlimit:10;stroke-width:0.36px;stroke:url(#linear-gradient-7);}.cls-10{fill:url(#linear-gradient-8);}.cls-11{fill:url(#linear-gradient-9);}.cls-12{fill:url(#linear-gradient-10);}</style><linearGradient id="linear-gradient" x1="240.41" y1="80.36" x2="535.57" y2="80.36" gradientUnits="userSpaceOnUse"><stop offset="0" stop-color="#d65400"/><stop offset="0.34" stop-color="#c03b00"/><stop offset="1" stop-color="#8c0000"/></linearGradient><linearGradient id="linear-gradient-2" x1="112.98" y1="72.16" x2="219.44" y2="72.16" gradientTransform="matrix(-1, 0, 0, 1, 373.24, 0)" gradientUnits="userSpaceOnUse"><stop offset="0" stop-color="#b08926"/><stop offset="0.51" stop-color="#facf05"/><stop offset="0.69" stop-color="#facf05"/><stop offset="1" stop-color="#b08926"/></linearGradient><linearGradient id="linear-gradient-3" x1="85.34" y1="336.92" x2="54.07" y2="45.63" gradientTransform="matrix(1, 0, 0, 1, 0, 0)" xlink:href="#linear-gradient-2"/><linearGradient id="linear-gradient-4" x1="100.99" y1="99.99" x2="193.5" y2="99.99" gradientUnits="userSpaceOnUse"><stop offset="0" stop-color="#b08926"/><stop offset="0.52" stop-color="#facf05"/><stop offset="0.69" stop-color="#facf05"/></linearGradient><linearGradient id="linear-gradient-5" x1="84.36" y1="72.16" x2="190.82" y2="72.16" gradientTransform="matrix(1, 0, 0, 1, 0, 0)" xlink:href="#linear-gradient-2"/><linearGradient id="linear-gradient-6" x1="222.12" y1="99.99" x2="129.61" y2="99.99" gradientTransform="matrix(-1, 0, 0, 1, 373.24, 0)" xlink:href="#linear-gradient-4"/><linearGradient id="linear-gradient-7" x1="170.85" y1="69.14" x2="170.85" y2="102.68" xlink:href="#linear-gradient"/><linearGradient id="linear-gradient-8" x1="148.1" y1="72.12" x2="148.1" y2="98.46" xlink:href="#linear-gradient"/><linearGradient id="linear-gradient-9" x1="173.02" y1="71.68" x2="173.02" y2="98.9" xlink:href="#linear-gradient"/><linearGradient id="linear-gradient-10" x1="200.02" y1="72.12" x2="200.02" y2="98.46" xlink:href="#linear-gradient"/></defs><title>top100</title><polygon class="cls-1" points="535.57 114.96 508.75 80.36 535.57 45.77 240.41 45.77 245.8 114.96 535.57 114.96"/><path class="cls-2" d="M153.81,64.24c3,12.51,10.77,15,17.05,14.84a34.47,34.47,0,0,1,1.47-8.16,34.89,34.89,0,0,1,68.25,10.25,34.18,34.18,0,0,1-1,8.27h0S237,110,246.21,117.72a54.59,54.59,0,1,0-92.4-53.48Z"/><path class="cls-3" d="M34,32.88V27.31H80V131H91.69v2.84H35.07V131H50.8V32.86Z"/><path class="cls-4" d="M193.5,81.17A54.56,54.56,0,0,1,101,120.38a43,43,0,0,0,7.56-22,34.89,34.89,0,0,0,65.28-17.16c0-.7,0-1.4-.07-2.09,6.29.2,14.09-2.33,17.06-14.84A54.17,54.17,0,0,1,193.5,81.17Z"/><path class="cls-5" d="M190.82,64.24c-3,12.51-10.77,15-17.06,14.84a34.46,34.46,0,0,0-1.46-8.16A34.9,34.9,0,0,0,105,89.44h0s2.59,20.55-6.62,28.28a54.57,54.57,0,1,1,89.77-60.08A52.49,52.49,0,0,1,190.82,64.24Z"/><path class="cls-6" d="M151.12,81.17a54.56,54.56,0,0,0,92.51,39.21,43,43,0,0,1-7.55-22,34.9,34.9,0,0,1-65.29-17.16c0-.7,0-1.4.07-2.09-6.28.2-14.09-2.33-17.06-14.84A54.46,54.46,0,0,0,151.12,81.17Z"/><text class="cls-7" transform="translate(276.68 94.36)">T<tspan class="cls-8" x="24.07" y="0">OÀN CẦU</tspan></text><rect class="cls-9" x="117.4" y="69.32" width="106.91" height="33.18" rx="16.59"/><path class="cls-10" d="M145.45,98.46V76.58h-7.82V72.12h20.93v4.46h-7.8V98.46Z"/><path class="cls-11" d="M160.25,85.45a16.78,16.78,0,0,1,1.2-6.75,12.46,12.46,0,0,1,2.45-3.61,10.11,10.11,0,0,1,3.41-2.37,14.34,14.34,0,0,1,5.67-1,12.33,12.33,0,0,1,9.31,3.61q3.5,3.6,3.5,10t-3.47,10a12.27,12.27,0,0,1-9.27,3.6,12.39,12.39,0,0,1-9.34-3.58Q160.25,91.74,160.25,85.45Zm5.48-.18c0,3,.68,5.24,2.06,6.78A6.74,6.74,0,0,0,173,94.36a6.65,6.65,0,0,0,5.21-2.29q2-2.29,2-6.87t-2-6.75a7.35,7.35,0,0,0-10.57,0C166.4,80,165.73,82.24,165.73,85.27Z"/><path class="cls-12" d="M189.94,98.46V72.12h8.53a31.05,31.05,0,0,1,6.32.4,6.9,6.9,0,0,1,3.79,2.58,8.14,8.14,0,0,1,1.53,5.12,8.67,8.67,0,0,1-.88,4.08A7.34,7.34,0,0,1,207,86.9a7.73,7.73,0,0,1-2.76,1.25,30.54,30.54,0,0,1-5.51.37h-3.47v9.94Zm5.31-21.88v7.47h2.91a14,14,0,0,0,4.21-.41,3.47,3.47,0,0,0,2.26-3.34,3.36,3.36,0,0,0-.85-2.37,3.59,3.59,0,0,0-2.13-1.17,25.58,25.58,0,0,0-3.83-.18Z"/></svg>